<svg xmlns="http://www.w3.org/2000/svg" viewBox="0 0 200 200"><rect width="200" height="200" rx="28" fill="#fce7f3"/><path d="M100 178 c-32 0 -44-18 -44-44 V70 a9 9 0 0 1 18 0 v28 h6 V52 a9 9 0 0 1 18 0 v46 h6 V46 a9 9 0 0 1 18 0 v52 h6 V62 a9 9 0 0 1 18 0 v62 c0 32 -16 54 -46 54 z" fill="#f9a8d4" stroke="#1d3557" stroke-width="7"/><circle cx="100" cy="128" r="13" fill="none" stroke="#db2777" stroke-width="6"/><circle cx="100" cy="128" r="4" fill="#db2777"/><circle cx="76" cy="112" r="4" fill="#db2777"/><circle cx="124" cy="112" r="4" fill="#db2777"/><circle cx="82" cy="150" r="4" fill="#db2777"/><circle cx="118" cy="150" r="4" fill="#db2777"/></svg>